<svg xmlns="http://www.w3.org/2000/svg" width="68" height="68" viewBox="-1065 386.9 68 68" enable-background="new -1065 386.9 68 68"><style type="text/css">.st0{fill:#525252;}</style><path class="st0" d="M-1052.1 447.3l5.4-16.7c.4-1.3-.1-2.8-1.2-3.6l-14.6-10.4c-2.5-1.8-1.2-5.8 1.8-5.8h18.6c1.4 0 2.6-.9 3-2.2l4.9-15.9c.9-3.1 5.6-3 6.4.1l4.7 15.3c.4 1.4 1.4 2.6 2.8 2.7l19 .1c3.1 0 4.3 4 1.8 5.8l-14.6 10.4c-1.2.8-1.5 2.4-1.1 3.8l5.3 16.3c1 3-2.5 5.7-5 3.6l-14-11.6c-1.2-1-2.8-1-4 0l-14.2 11.5c-2.4 2-6-.4-5-3.4z"/></svg>