<svg xmlns="http://www.w3.org/2000/svg" viewBox="0 0 113 68" enable-background="new 0 0 113 68"><path fill="#525252" d="M64.7 33.5c0 4.5-3.7 8.2-8.2 8.2-4.5 0-8.2-3.7-8.2-8.2 0-4.5 3.7-8.2 8.2-8.2 4.6 0 8.2 3.7 8.2 8.2M95.7 33.5c0 4.5-3.7 8.2-8.2 8.2-4.5 0-8.2-3.7-8.2-8.2 0-4.5 3.7-8.2 8.2-8.2 4.6 0 8.2 3.7 8.2 8.2M26.3 25.3v3.7c0 3-2.4 5.4-5.4 5.4h-3.6c.5 4.1 3.9 7.3 8.2 7.3 4.5 0 8.2-3.7 8.2-8.2 0-4.2-3.2-7.7-7.4-8.2M19.9 29.5h-17.7c-.8 0-1.5-.7-1.5-1.5v-21.7c0-.8.7-1.5 1.5-1.5h17.7c.8 0 1.5.7 1.5 1.5v21.7c0 .8-.7 1.5-1.5 1.5"/><path fill="#fff" d="M8.5 16.2c-.8 0-1.3 0-1.9.1v-2.3c.6.1 1.2.1 1.9.1h.8v-1.1c0-2.5 1.3-3.6 4-3.6.9 0 1.6.1 2.5.4l-.5 2.1c-.6-.3-1.1-.5-1.8-.5-1.2 0-1.6.5-1.6 1.9v.8h.9c.8 0 1.4 0 2.3-.1v2.3c-.7-.1-1.2-.1-2.2-.1h-1v6.8c0 1.1 0 1.7.1 2.6h-2.9c.1-1 .2-1.6.2-2.6v-6.8h-.8z"/></svg>