<svg xmlns="http://www.w3.org/2000/svg" width="113.386" height="85.039" viewBox="0 0 113.386 85.039"><path fill="#525252" d="M73.21 42.533c0 4.539-3.68 8.219-8.219 8.219-4.54 0-8.22-3.681-8.22-8.219 0-4.539 3.68-8.219 8.22-8.219 4.539-.001 8.219 3.68 8.219 8.219M104.21 42.533c0 4.539-3.68 8.219-8.219 8.219-4.54 0-8.22-3.681-8.22-8.219 0-4.539 3.68-8.219 8.22-8.219 4.539-.001 8.219 3.68 8.219 8.219M34.813 34.355v3.7c0 2.999-2.431 5.43-5.43 5.43h-3.552c.472 4.091 3.943 7.268 8.159 7.268 4.54 0 8.22-3.681 8.22-8.219 0-4.263-3.244-7.766-7.397-8.179M28.359 38.52h-17.668c-.837 0-1.515-.678-1.515-1.515v-21.727c0-.837.678-1.515 1.515-1.515h17.668c.837 0 1.515.678 1.515 1.515v21.726c0 .837-.678 1.516-1.515 1.516"/><path fill="#fff" d="M16.928 25.213c-.76 0-1.28.04-1.9.12v-2.34c.56.08 1.16.12 1.88.12h.82v-1.061c0-2.48 1.26-3.641 3.981-3.641.9 0 1.561.1 2.48.4l-.54 2.101c-.6-.34-1.1-.48-1.78-.48-1.16 0-1.561.48-1.561 1.86v.82h.94c.8 0 1.42-.04 2.26-.12v2.34c-.7-.08-1.24-.12-2.22-.12h-.98v6.782c0 1.14.04 1.72.14 2.601h-2.86c.1-.94.14-1.561.14-2.601v-6.782h-.8z"/></svg>