<svg xmlns="http://www.w3.org/2000/svg" width="113" height="68" viewBox="-1042 386.9 113 68" enable-background="new -1042 386.9 113 68"><style type="text/css">.st0{fill:#525252;} .st1{fill:#FFFFFF;}</style><path class="st0" d="M-929.3 412.5v16.9c0 2-1.6 3.6-3.6 3.6h-104.8c-2 0-3.6-1.6-3.6-3.6v-16.9c0-2 1.6-3.6 3.6-3.6h104.8c2 0 3.6 1.6 3.6 3.6z"/><path class="st1" d="M-954.4 423.5h-80c-.8 0-1.4-.6-1.4-1.4v-2.3c0-.8.6-1.4 1.4-1.4h80c.8 0 1.4.6 1.4 1.4v2.3c.1.7-.6 1.4-1.4 1.4zm5.9-11.6h1.3v18.1h-1.3v-18.1z"/></svg>
