<svg xmlns="http://www.w3.org/2000/svg" width="189" height="189" viewBox="-1004 326 189 189" enable-background="new -1004 326 189 189"><style type="text/css">.st0{opacity:0.15;fill:#231815;enable-background:new ;} .st1{fill:#404757;} .st2{opacity:0.3;enable-background:new ;} .st3{fill:#585F6A;} .st4{opacity:0.3;} .st5{fill:#F9EAA6;}</style><path class="st0" d="M-1003.3 492.7c.6 9.1 4.3 22.1 21.8 22.1h149.6c9.7 0 17.6-7.9 17.6-17.6v-127.6c-.2-2.1-1.2-14.1-22.3-29.5"/><path class="st1" d="M-868.9 328.9l5-1.2c6.7 1.6 16.9 4.3 28.6 13.8 10.8 8.7 12.2 17.5 12.4 19.6v127.6c0 9.7-7.9 17.6-17.6 17.6h-145.7c-9.7 0-17.6-7.9-17.6-17.6v-127.2s0-10 12.4-20c11.8-9.6 22-12.3 28.7-13.9l5 1.2h88.8v.1z"/><path class="st2" d="M-822.9 488.6c0 9.7-7.9 17.6-17.6 17.6h-145.7c-5.1 0-9.6-2.1-12.9-5.6l26.6-37.3 103.6-134.4 5-1.2c6.7 1.6 16.9 4.3 28.6 13.8 12.4 10 12.4 20 12.4 20v127.1z"/><path class="st3" d="M-843 441.9c0 14.4-11.6 26-26 26h-88.7c-14.4 0-26-11.6-26-26v-88.8c0-14.4 11.6-26 26-26h88.7c14.4 0 26 11.6 26 26v88.8z"/><path d="M-920.8 369.8h7.5v63.6h-7.5v-30.8h-10.2v30.8h-7.5v-63.6h7.5v26.7h10.2v-26.7zm19.3 0h7.4v9.8h5.9v5.5h-5.9v39.6c0 1.4.3 2.3 1 2.6.7.3 2.3.5 5 .5v5.9h-5.1c-3.4 0-5.6-.6-6.7-1.9-1-1.2-1.6-3.4-1.6-6.5v-40.1h-5v-5.5h5v-9.9z" class="st4"/><path class="st5" d="M-920.8 367.3h7.5v63.6h-7.5v-30.8h-10.2v30.8h-7.5v-63.6h7.5v26.7h10.2v-26.7zm19.3 0h7.4v9.8h5.9v5.5h-5.9v39.6c0 1.4.3 2.3 1 2.6.7.3 2.3.5 5 .5v5.9h-5.1c-3.4 0-5.6-.6-6.7-1.9-1-1.2-1.6-3.4-1.6-6.5v-40.2h-5v-5.5h5v-9.8z"/></svg>
